<svg id="stage" xmlns="http://www.w3.org/2000/svg" xmlns:xlink="http://www.w3.org/1999/xlink" viewBox="0 0 1285.95 632.47"><defs><style>.cls-1,.cls-2{opacity:0.75;}.cls-1{fill:url(#Безымянный_градиент_8);}.cls-2{fill:#fff;}.cls-3{fill:#121331;}.cls-4{fill-opacity:0;}.cls-5{fill:#0071bc;}</style><linearGradient id="Безымянный_градиент_8" x1="659.92" y1="262.27" x2="659.92" y2="413.93" gradientUnits="userSpaceOnUse"><stop offset="0" stop-color="aqua"/><stop offset="1" stop-color="#0071bc"/></linearGradient></defs><g id="pipe"><path class="cls-1" d="M902.35,337.86c0-41,12.68-74.3,28.34-74.3H417.49c-15.65,0-28.34,33.27-28.34,74.3s12.69,74.3,28.34,74.3h513.2C915,412.16,902.35,378.89,902.35,337.86Z"/><ellipse class="cls-2" cx="930.69" cy="337.86" rx="28.34" ry="74.3"/></g><g id="worker2"><path class="cls-3" d="M1285,140.05l-9-6.16,9-6.17a2.2,2.2,0,0,0,1-2.12,60.83,60.83,0,0,0-6.76-20.86,2.23,2.23,0,0,0-2-1.17l-10.92.3,3.66-10.27a2.24,2.24,0,0,0-.49-2.29,62,62,0,0,0-17.72-12.89,2.24,2.24,0,0,0-2.33.25l-8.65,6.66-3.08-10.47a2.22,2.22,0,0,0-1.74-1.56,62.56,62.56,0,0,0-21.92,0,2.24,2.24,0,0,0-1.74,1.56l-3.08,10.47-8.65-6.66a2.24,2.24,0,0,0-2.33-.25,62,62,0,0,0-17.72,12.89,2.24,2.24,0,0,0-.49,2.29l3.66,10.27-10.92-.3a2.22,2.22,0,0,0-2,1.17,60.83,60.83,0,0,0-6.76,20.86,2.2,2.2,0,0,0,.95,2.12l9,6.17-9,6.16a2.21,2.21,0,0,0-.95,2.13,60.84,60.84,0,0,0,6.77,20.86,2.23,2.23,0,0,0,2,1.17l10.91-.3-3.66,10.27a2.23,2.23,0,0,0,.49,2.28,61.39,61.39,0,0,0,17.72,12.89,2.2,2.2,0,0,0,2.32-.24l8.65-6.66,3.09,10.48a2.25,2.25,0,0,0,1.74,1.56,62.35,62.35,0,0,0,21.91,0,2.24,2.24,0,0,0,1.74-1.56l3.09-10.48,8.66,6.66a2.22,2.22,0,0,0,2.32.24,61.39,61.39,0,0,0,17.72-12.89,2.23,2.23,0,0,0,.49-2.28l-3.66-10.27,10.92.3a2.24,2.24,0,0,0,2-1.17,60.84,60.84,0,0,0,6.77-20.86A2.21,2.21,0,0,0,1285,140.05Zm-9.1,19.68-12.77-.36a2.25,2.25,0,0,0-1.86.92,2.21,2.21,0,0,0-.29,2.05l4.27,12A56.82,56.82,0,0,1,1251,184.74L1240.84,177a2.23,2.23,0,0,0-3.49,1.13l-3.61,12.26a58,58,0,0,1-17.64,0l-3.61-12.26A2.23,2.23,0,0,0,1209,177l-10.13,7.79a56.64,56.64,0,0,1-14.25-10.38l4.27-12a2.22,2.22,0,0,0-2.15-3l-12.77.36a56.45,56.45,0,0,1-5.45-16.8l10.52-7.21a2.22,2.22,0,0,0,0-3.67l-10.52-7.21a56.41,56.41,0,0,1,5.44-16.78l12.78.35a2.21,2.21,0,0,0,2.15-3l-4.28-12A57.18,57.18,0,0,1,1198.88,83L1209,90.83a2.23,2.23,0,0,0,3.49-1.13l3.6-12.25a58.09,58.09,0,0,1,17.66,0l3.6,12.25a2.23,2.23,0,0,0,3.49,1.13L1251,83a57.36,57.36,0,0,1,14.27,10.38l-4.28,12a2.21,2.21,0,0,0,2.15,3l12.78-.35a56.41,56.41,0,0,1,5.44,16.78l-10.53,7.21a2.23,2.23,0,0,0,0,3.67l10.53,7.21A56.45,56.45,0,0,1,1275.87,159.73Z"/><path class="cls-3" d="M1224.92,97.88a36,36,0,1,0,36,36A36.05,36.05,0,0,0,1224.92,97.88Zm0,67.57a31.56,31.56,0,1,1,31.56-31.56A31.6,31.6,0,0,1,1224.92,165.45Z"/></g><g id="worker1"><path class="cls-3" d="M1285,344.52l-9-6.17,9-6.16a2.22,2.22,0,0,0,1-2.13,60.9,60.9,0,0,0-6.76-20.86,2.21,2.21,0,0,0-2-1.16l-10.92.3,3.66-10.28a2.23,2.23,0,0,0-.49-2.28,61.76,61.76,0,0,0-17.72-12.89,2.23,2.23,0,0,0-2.33.24l-8.65,6.66-3.08-10.46a2.21,2.21,0,0,0-1.74-1.56,62.09,62.09,0,0,0-21.92,0,2.22,2.22,0,0,0-1.74,1.56l-3.08,10.46-8.65-6.66a2.23,2.23,0,0,0-2.33-.24,61.76,61.76,0,0,0-17.72,12.89,2.21,2.21,0,0,0-.49,2.28l3.66,10.28-10.92-.3a2.21,2.21,0,0,0-2,1.16,60.9,60.9,0,0,0-6.76,20.86,2.22,2.22,0,0,0,.95,2.13l9,6.16-9,6.17a2.2,2.2,0,0,0-.95,2.12,60.9,60.9,0,0,0,6.76,20.86,2.25,2.25,0,0,0,2,1.18l10.92-.31L1180,378.64a2.22,2.22,0,0,0,.49,2.28,61.42,61.42,0,0,0,17.72,12.9,2.24,2.24,0,0,0,2.32-.24l8.65-6.66,3.09,10.47A2.24,2.24,0,0,0,1214,399a61.78,61.78,0,0,0,21.92,0,2.22,2.22,0,0,0,1.74-1.56l3.08-10.47,8.67,6.66a2.24,2.24,0,0,0,2.32.24,61.23,61.23,0,0,0,17.72-12.9,2.22,2.22,0,0,0,.49-2.28l-3.66-10.27,10.91.31a2.24,2.24,0,0,0,2-1.18,60.71,60.71,0,0,0,6.77-20.86A2.2,2.2,0,0,0,1285,344.52Zm-9.1,19.67-12.77-.35a2.24,2.24,0,0,0-1.86.91,2.21,2.21,0,0,0-.29,2.05l4.27,12A56.79,56.79,0,0,1,1251,389.2l-10.13-7.79a2.26,2.26,0,0,0-2-.35,2.23,2.23,0,0,0-1.45,1.49l-3.61,12.25a58,58,0,0,1-17.64,0l-3.62-12.25a2.19,2.19,0,0,0-1.44-1.49,2.25,2.25,0,0,0-2,.35l-10.13,7.79a56.84,56.84,0,0,1-14.26-10.37l4.28-12a2.22,2.22,0,0,0-2.16-3l-12.76.35a56.39,56.39,0,0,1-5.45-16.79l10.52-7.21a2.22,2.22,0,0,0,0-3.67l-10.52-7.21a56.57,56.57,0,0,1,5.44-16.79l12.77.36a2.23,2.23,0,0,0,2.16-3l-4.28-12a57.43,57.43,0,0,1,14.27-10.38l10.12,7.79a2.21,2.21,0,0,0,3.48-1.13l3.61-12.24a58.09,58.09,0,0,1,17.66,0l3.6,12.24a2.22,2.22,0,0,0,3.49,1.13L1251,287.5a57.48,57.48,0,0,1,14.28,10.38l-4.28,12a2.21,2.21,0,0,0,.29,2,2.25,2.25,0,0,0,1.86.92l12.78-.36a56.57,56.57,0,0,1,5.44,16.79l-10.53,7.21a2.23,2.23,0,0,0,0,3.67l10.53,7.21A56.68,56.68,0,0,1,1275.88,364.19Z"/><path class="cls-3" d="M1224.92,302.35a36,36,0,1,0,36,36A36,36,0,0,0,1224.92,302.35Zm0,67.57a31.57,31.57,0,1,1,31.57-31.56A31.6,31.6,0,0,1,1224.92,369.92Z"/></g><g id="worker0"><path class="cls-3" d="M1285,549l-9-6.16,9-6.17a2.2,2.2,0,0,0,1-2.12,60.83,60.83,0,0,0-6.76-20.86,2.23,2.23,0,0,0-2-1.17l-10.92.3,3.66-10.27a2.24,2.24,0,0,0-.49-2.29,62,62,0,0,0-17.72-12.89,2.24,2.24,0,0,0-2.33.25l-8.65,6.66-3.08-10.47a2.22,2.22,0,0,0-1.74-1.56,62.56,62.56,0,0,0-21.92,0,2.24,2.24,0,0,0-1.74,1.56l-3.08,10.47-8.65-6.66a2.24,2.24,0,0,0-2.33-.25,62,62,0,0,0-17.72,12.89,2.24,2.24,0,0,0-.49,2.29l3.66,10.27-10.92-.3a2.22,2.22,0,0,0-2,1.17,60.83,60.83,0,0,0-6.76,20.86,2.2,2.2,0,0,0,.95,2.12l9,6.17-9,6.16a2.21,2.21,0,0,0-.95,2.13,60.84,60.84,0,0,0,6.77,20.86,2.23,2.23,0,0,0,2,1.17l10.91-.3-3.66,10.27a2.23,2.23,0,0,0,.49,2.28,61.39,61.39,0,0,0,17.72,12.89,2.2,2.2,0,0,0,2.32-.24l8.65-6.66,3.09,10.48a2.25,2.25,0,0,0,1.74,1.56,62.35,62.35,0,0,0,21.91,0,2.24,2.24,0,0,0,1.74-1.56l3.09-10.48,8.66,6.66a2.22,2.22,0,0,0,2.32.24,61.39,61.39,0,0,0,17.72-12.89,2.23,2.23,0,0,0,.49-2.28l-3.66-10.27,10.92.3a2.24,2.24,0,0,0,2-1.17,60.84,60.84,0,0,0,6.77-20.86A2.21,2.21,0,0,0,1285,549Zm-9.1,19.68-12.77-.36a2.25,2.25,0,0,0-1.86.92,2.21,2.21,0,0,0-.29,2l4.27,12A56.82,56.82,0,0,1,1251,593.67l-10.13-7.79a2.23,2.23,0,0,0-3.49,1.13l-3.61,12.26a58,58,0,0,1-17.64,0L1212.49,587a2.23,2.23,0,0,0-3.49-1.13l-10.13,7.79a56.64,56.64,0,0,1-14.25-10.38l4.27-12a2.22,2.22,0,0,0-2.15-3l-12.77.36a56.45,56.45,0,0,1-5.45-16.8l10.52-7.21a2.22,2.22,0,0,0,0-3.67l-10.52-7.21A56.41,56.41,0,0,1,1174,517l12.78.35a2.21,2.21,0,0,0,2.15-3l-4.28-12A57.18,57.18,0,0,1,1198.88,492l10.12,7.79a2.23,2.23,0,0,0,3.49-1.13l3.6-12.25a58.09,58.09,0,0,1,17.66,0l3.6,12.25a2.23,2.23,0,0,0,3.49,1.13L1251,492a57.36,57.36,0,0,1,14.27,10.38l-4.28,12a2.21,2.21,0,0,0,2.15,3l12.78-.35a56.41,56.41,0,0,1,5.44,16.78L1270.79,541a2.23,2.23,0,0,0,0,3.67l10.53,7.21A56.45,56.45,0,0,1,1275.87,568.66Z"/><path class="cls-3" d="M1224.92,506.81a36,36,0,1,0,36,36A36.05,36.05,0,0,0,1224.92,506.81Zm0,67.57a31.56,31.56,0,1,1,31.56-31.56A31.6,31.6,0,0,1,1224.92,574.38Z"/></g><g id="job6"><path class="cls-4" d="M163.93,103.31H96.47V2h48.78l9.34,9.34,9.34,9.34v82.59Z"/><path class="cls-3" d="M163.93,105.35H96.47a2,2,0,0,1-2-2V2a2,2,0,0,1,2-2h48.78a2,2,0,0,1,1.44.6l18.68,18.67a2.07,2.07,0,0,1,.6,1.45v82.59A2,2,0,0,1,163.93,105.35ZM98.5,101.27h63.39V21.56L144.41,4.08H98.5Z"/><path class="cls-4" d="M160.59,20.05H145.38V2.61"/><path class="cls-3" d="M160.59,22.08H145.38a2,2,0,0,1-2-2V2.62a2,2,0,1,1,4.07,0V18h13.18a2,2,0,1,1,0,4.07Z"/><path class="cls-5" d="M152.61,85.63H109.34a2,2,0,0,1,0-4.08h43.27a2,2,0,0,1,0,4.08Z"/><path class="cls-5" d="M152.61,69.33H109.34a2,2,0,0,1,0-4.08h43.27a2,2,0,0,1,0,4.08Z"/><path class="cls-5" d="M152.61,53H109.34a2,2,0,0,1,0-4.08h43.27a2,2,0,0,1,0,4.08Z"/><path class="cls-5" d="M152.61,36.72H109.34a2,2,0,0,1,0-4.08h43.27a2,2,0,0,1,0,4.08Z"/></g><g id="job5"><path class="cls-4" d="M71.05,183.14H3.59V81.88H52.37l9.34,9.33,9.34,9.34v82.59Z"/><path class="cls-3" d="M71.05,185.18H3.59a2,2,0,0,1-2-2V81.88a2,2,0,0,1,2-2H52.37a2.06,2.06,0,0,1,1.45.59L72.49,99.11a2,2,0,0,1,.6,1.44v82.59A2,2,0,0,1,71.05,185.18ZM5.63,181.11H69V101.4L51.53,83.92H5.63Z"/><path class="cls-4" d="M67.72,99.88H52.5V82.45"/><path class="cls-3" d="M67.72,101.92H52.5a2,2,0,0,1-2-2V82.45a2,2,0,1,1,4.08,0v15.4H67.72a2,2,0,0,1,0,4.07Z"/><path class="cls-5" d="M59.73,165.47H16.46a2,2,0,0,1,0-4.08H59.74a2,2,0,0,1,0,4.08Z"/><path class="cls-5" d="M59.73,149.16H16.46a2,2,0,0,1,0-4.08H59.74a2,2,0,0,1,0,4.08Z"/><path class="cls-5" d="M59.73,132.86H16.46a2,2,0,0,1,0-4.08H59.74a2,2,0,0,1,0,4.08Z"/><path class="cls-5" d="M59.73,116.56H16.46a2,2,0,0,1,0-4.08H59.74a2,2,0,0,1,0,4.08Z"/></g><g id="job4"><path class="cls-4" d="M169.35,290H101.89V188.76h48.79L160,198.1l9.34,9.34V290Z"/><path class="cls-3" d="M169.35,292.07H101.89a2,2,0,0,1-2-2V188.76a2,2,0,0,1,2-2h48.79a2.06,2.06,0,0,1,1.44.6L170.79,206a2,2,0,0,1,.6,1.44V290A2,2,0,0,1,169.35,292.07ZM103.93,288h63.39V208.28L149.83,190.8h-45.9Z"/><path class="cls-4" d="M166,206.77H150.8V189.33"/><path class="cls-3" d="M166,208.81H150.8a2,2,0,0,1-2-2V189.34a2,2,0,0,1,4.08,0v15.39H166a2,2,0,0,1,0,4.08Z"/><path class="cls-5" d="M158,272.35H114.76a2,2,0,0,1,0-4.08H158a2,2,0,0,1,0,4.08Z"/><path class="cls-5" d="M158,256.05H114.76a2,2,0,0,1,0-4.08H158a2,2,0,0,1,0,4.08Z"/><path class="cls-5" d="M158,239.75H114.76a2,2,0,0,1,0-4.08H158a2,2,0,0,1,0,4.08Z"/><path class="cls-5" d="M158,223.44H114.76a2,2,0,0,1,0-4.08H158a2,2,0,0,1,0,4.08Z"/></g><g id="job3"><path class="cls-4" d="M163.93,460.23H96.47V359h48.78l9.34,9.34,9.34,9.34v82.59Z"/><path class="cls-3" d="M163.93,462.27H96.47a2,2,0,0,1-2-2V359a2,2,0,0,1,2-2h48.78a2,2,0,0,1,1.44.6l18.68,18.68a2,2,0,0,1,.6,1.44v82.59A2,2,0,0,1,163.93,462.27ZM98.5,458.19h63.39v-79.7L144.41,361H98.5Z"/><path class="cls-4" d="M160.59,377H145.38V359.54"/><path class="cls-3" d="M160.59,379H145.38a2,2,0,0,1-2-2V359.54a2,2,0,1,1,4.07,0v15.39h13.18a2,2,0,1,1,0,4.08Z"/><path class="cls-5" d="M152.61,442.55H109.34a2,2,0,0,1,0-4.08h43.27a2,2,0,0,1,0,4.08Z"/><path class="cls-5" d="M152.61,426.25H109.34a2,2,0,0,1,0-4.08h43.27a2,2,0,0,1,0,4.08Z"/><path class="cls-5" d="M152.61,410H109.34a2,2,0,0,1,0-4.08h43.27a2,2,0,0,1,0,4.08Z"/><path class="cls-5" d="M152.61,393.64H109.34a2,2,0,0,1,0-4.08h43.27a2,2,0,0,1,0,4.08Z"/></g><g id="job2"><path class="cls-4" d="M69.5,368.77H2V267.5H50.82l9.34,9.34,9.34,9.34v82.59Z"/><path class="cls-3" d="M69.5,370.81H2a2,2,0,0,1-2-2V267.5a2,2,0,0,1,2-2H50.82a2,2,0,0,1,1.44.6l18.68,18.68a2,2,0,0,1,.6,1.44v82.59A2,2,0,0,1,69.5,370.81ZM4.07,366.74H67.46V287L50,269.54H4.07Z"/><path class="cls-4" d="M66.16,285.51H51V268.08"/><path class="cls-3" d="M66.16,287.55H51a2,2,0,0,1-2-2V268.08a2,2,0,1,1,4.07,0v15.39H66.16a2,2,0,1,1,0,4.08Z"/><path class="cls-5" d="M58.18,351.09H14.91a2,2,0,0,1,0-4.08H58.18a2,2,0,1,1,0,4.08Z"/><path class="cls-5" d="M58.18,334.79H14.91a2,2,0,1,1,0-4.08H58.18a2,2,0,0,1,0,4.08Z"/><path class="cls-5" d="M58.18,318.49H14.91a2,2,0,0,1,0-4.08H58.18a2,2,0,1,1,0,4.08Z"/><path class="cls-5" d="M58.18,302.18H14.91a2,2,0,1,1,0-4.07H58.18a2,2,0,1,1,0,4.07Z"/></g><g id="job1"><path class="cls-4" d="M71.83,545.86H4.37V444.59H53.15l9.34,9.34,9.34,9.34v82.59Z"/><path class="cls-3" d="M71.83,547.9H4.37a2,2,0,0,1-2-2V444.59a2,2,0,0,1,2-2H53.15a2,2,0,0,1,1.44.6l18.68,18.68a2,2,0,0,1,.6,1.44v82.59A2,2,0,0,1,71.83,547.9ZM6.4,543.82H69.79V464.11L52.31,446.63H6.4Z"/><path class="cls-4" d="M68.5,462.6H53.28V445.16"/><path class="cls-3" d="M68.5,464.64H53.28a2,2,0,0,1-2-2V445.17a2,2,0,1,1,4.07,0v15.39H68.5a2,2,0,0,1,0,4.08Z"/><path class="cls-5" d="M60.51,528.18H17.24a2,2,0,0,1,0-4.08H60.51a2,2,0,1,1,0,4.08Z"/><path class="cls-5" d="M60.51,511.88H17.24a2,2,0,0,1,0-4.08H60.51a2,2,0,1,1,0,4.08Z"/><path class="cls-5" d="M60.51,495.58H17.24a2,2,0,0,1,0-4.08H60.51a2,2,0,1,1,0,4.08Z"/><path class="cls-5" d="M60.51,479.27H17.24a2,2,0,0,1,0-4.08H60.51a2,2,0,1,1,0,4.08Z"/></g><g id="job0"><path class="cls-4" d="M163.93,630.43H96.47V529.16h48.78l9.34,9.34,9.34,9.34v82.59Z"/><path class="cls-3" d="M163.93,632.47H96.47a2,2,0,0,1-2-2V529.16a2,2,0,0,1,2-2h48.78a2,2,0,0,1,1.44.6l18.68,18.68a2,2,0,0,1,.6,1.44v82.59A2,2,0,0,1,163.93,632.47ZM98.5,628.4h63.39V548.69L144.41,531.2H98.5Z"/><path class="cls-4" d="M160.59,547.17H145.38V529.74"/><path class="cls-3" d="M160.59,549.21H145.38a2,2,0,0,1-2-2V529.74a2,2,0,1,1,4.07,0v15.39h13.18a2,2,0,1,1,0,4.08Z"/><path class="cls-5" d="M152.61,612.75H109.34a2,2,0,0,1,0-4.08h43.27a2,2,0,0,1,0,4.08Z"/><path class="cls-5" d="M152.61,596.45H109.34a2,2,0,1,1,0-4.08h43.27a2,2,0,1,1,0,4.08Z"/><path class="cls-5" d="M152.61,580.15H109.34a2,2,0,0,1,0-4.08h43.27a2,2,0,1,1,0,4.08Z"/><path class="cls-5" d="M152.61,563.84H109.34a2,2,0,1,1,0-4.08h43.27a2,2,0,1,1,0,4.08Z"/></g></svg>